<svg width="800" height="800" version="1.1" xmlns="http://www.w3.org/2000/svg" desc="Created with imagetracer.js version 1.2.6" ><path fill="rgb(0,0,0)" stroke="rgb(0,0,0)" stroke-width="1" opacity="0" d="M 0 0 L 0.5 0 L 799.5 0 L 800 0 L 800 0.5 L 800 799.5 L 800 800 L 799.5 800 L 0.5 800 L 0 800 L 0 799.5 L 0 0.5 L 0 0 Z M 404 151 L 404 152 L 404 201 L 404 201 L 404 201 L 255 201 L 254 201 L 254 202 L 254 251 L 254 251 L 254 251 L 205 251 L 204 251 L 204 252 L 204 301 L 204 301 L 204 301 L 155 301 L 154 301 L 154 302 L 154 351 L 154 351 L 154 351 L 105 351 L 104 351 L 104 352 L 104 551 Q 104 551 105 551 L 154 551 L 154 551 L 154 552 L 154 601 L 154 601 L 155 601 L 204 601 L 204 601 L 204 602 L 204 651 L 204 651 L 205 651 L 404 651 L 404 651 L 404 651 L 404 602 L 404 601 L 405 601 L 504 601 L 504 601 L 504 601 L 504 552 Q 504 551 505 551 L 604 551 L 604 551 L 604 551 L 604 502 L 604 501 L 605 501 L 654 501 L 654 501 L 654 501 L 654 452 L 654 451 L 655 451 L 704 451 L 704 451 L 704 451 L 704 252 L 704 251 L 704 251 L 655 251 L 654 251 L 654 251 L 654 202 L 654 201 L 654 201 L 605 201 L 604 201 L 604 201 L 604 152 Q 604 151 604 151 L 405 151 L 404 151 Z " /><path fill="rgb(148,93,22)" stroke="rgb(148,93,22)" stroke-width="1" opacity="0.996078431372549" d="M 404 151 L 404.5 151 L 603.5 151 L 604 151 L 604 151.5 L 604 200.5 L 604 201 L 604.5 201 L 653.5 201 L 654 201 L 654 201.5 L 654 250.5 L 654 251 L 654.5 251 L 703.5 251 L 704 251 L 704 251.5 L 704 300.5 L 704 301 L 703.5 301 L 654.5 301 L 654 301 L 654 300.5 L 654 251.5 L 654 251 L 653.5 251 L 604.5 251 L 604 251 L 604 250.5 L 604 201.5 L 604 201 L 603.5 201 L 454.5 201 L 454 201 L 454 201.5 L 454 250.5 L 454 251 L 453.5 251 L 304.5 251 Q 303.8 250.8 304 251.5 L 304 300.5 L 304 301 L 303.5 301 L 204.5 301 L 204 301 L 204 301.5 L 204 350.5 L 204 351 L 203.5 351 L 154.5 351 L 154 351 L 154 351.5 L 154 450.5 L 154 451 L 153.5 451 L 104.5 451 L 104 451 L 104 450.5 L 104 351.5 L 104 351 L 104.5 351 L 153.5 351 L 154 351 L 154 350.5 L 154 301.5 L 154 301 L 154.5 301 L 203.5 301 L 204 301 L 204 300.5 L 204 251.5 L 204 251 L 204.5 251 L 253.5 251 L 254 251 L 254 250.5 L 254 201.5 L 254 201 L 254.5 201 L 403.5 201 L 404 201 L 404 200.5 L 404 151.5 L 404 151 Z " /><path fill="rgb(148,93,22)" stroke="rgb(148,93,22)" stroke-width="1" opacity="0.996078431372549" d="M 604 351 L 604.5 351 L 653.5 351 L 654 351 L 654 351.5 L 654 450.5 L 654 451 L 653.5 451 L 604.5 451 L 604 451 L 604 451.5 L 604 500.5 L 604 501 L 603.5 501 L 504.5 501 L 504 501 L 504 501.5 L 504 550.5 L 504 551 L 503.5 551 L 454.5 551 L 454 551 L 454 550.5 L 454 501.5 L 454 501 L 454.5 501 L 503.5 501 L 504 501 L 504 500.5 L 504 451.5 L 504 451 L 504.5 451 L 553.5 451 L 554 451 L 554 450.5 L 554 401.5 L 554 401 L 554.5 401 L 603.5 401 L 604 401 L 604 400.5 L 604 351.5 L 604 351 Z " /><path fill="rgb(148,93,22)" stroke="rgb(148,93,22)" stroke-width="1" opacity="0.996078431372549" d="M 154 501 L 154.5 501 L 203.5 501 L 204 501 L 204 501.5 L 204 550.5 L 204 551 L 204.5 551 L 253.5 551 L 254 551 L 254 551.5 L 254 600.5 L 254 601 L 253.5 601 L 204.5 601 L 204 601 L 204 600.5 L 204 551.5 L 204 551 L 203.5 551 L 154.5 551 L 154 551 L 154 550.5 L 154 501.5 L 154 501 Z " /><path fill="rgb(148,93,22)" stroke="rgb(148,93,22)" stroke-width="1" opacity="0.996078431372549" d="M 354 551 L 354.5 551 L 403.5 551 L 404 551 L 404 551.5 L 404 600.5 L 404 601 L 403.5 601 L 354.5 601 L 354 601 L 354 600.5 L 354 551.5 L 354 551 Z " /><path fill="rgb(239,191,105)" stroke="rgb(239,191,105)" stroke-width="1" opacity="1" d="M 254 301 L 254.5 301 L 403.5 301 L 404 301 L 404 301.5 L 404 400.5 L 404 401 L 403.5 401 L 354.5 401 L 354 401 L 354 401.5 L 354 450.5 L 354 451 L 353.5 451 L 304.5 451 L 304 451 L 304 451.5 L 304 500.5 L 304 501 L 303.5 501 L 254.5 501 L 254 501 L 254 500.5 L 254 451.5 L 254 451 L 253.5 451 L 204.5 451 L 204 451 L 204 450.5 L 204 351.5 L 204 351 L 204.5 351 L 253.5 351 L 254 351 L 254 350.5 L 254 301.5 L 254 301 Z " /><path fill="rgb(217,166,75)" stroke="rgb(217,166,75)" stroke-width="1" opacity="1" d="M 454 201 L 454.5 201 L 503.5 201 L 504 201 L 504 201.5 L 504 250.5 L 504 251 L 504.5 251 L 603.5 251 L 604 251 L 604 251.5 L 604 300.5 L 604 301 L 603.5 301 L 554.5 301 L 554 301 L 554 301.5 L 554 400.5 L 554 401 L 553.5 401 L 504.5 401 L 504 401 L 504 401.5 L 504 450.5 L 504 451 L 503.5 451 L 404.5 451 L 404 451 L 404 451.5 L 404 500.5 L 404 501 L 403.5 501 L 354.5 501 L 354 501 L 354 501.5 L 354 550.5 L 354 551 L 353.5 551 L 304.5 551 L 304 551 L 304 550.5 L 304 451.5 L 304 451 L 304.5 451 L 353.5 451 L 354 451 L 354 450.5 L 354 401.5 L 354 401 L 354.5 401 L 403.5 401 L 404 401 L 404 400.5 L 404 301.5 L 404 301 L 403.5 301 L 354.5 301 L 354 301 L 354 300.5 L 354 251.5 L 354 251 L 354.5 251 L 453.5 251 L 454 251 L 454 250.5 L 454 201.5 L 454 201 Z M 454 251 L 454 252 L 454 301 L 454 301 L 455 301 L 504 301 L 504 301 L 504 301 L 504 252 L 504 251 L 504 251 L 455 251 L 454 251 Z " /><path fill="rgb(217,166,75)" stroke="rgb(217,166,75)" stroke-width="1" opacity="1" d="M 204 301 L 204.5 301 L 253.5 301 L 254 301 L 254 301.5 L 254 350.5 L 254 351 L 253.5 351 L 204.5 351 L 204 351 L 204 350.5 L 204 301.5 L 204 301 Z " /><path fill="rgb(217,166,75)" stroke="rgb(217,166,75)" stroke-width="1" opacity="1" d="M 154 401 L 154.5 401 L 203.5 401 L 204 401 L 204 401.5 L 204 450.5 L 204 451 L 203.5 451 L 154.5 451 L 154 451 L 154 450.5 L 154 401.5 L 154 401 Z " /><path fill="rgb(188,139,56)" stroke="rgb(188,139,56)" stroke-width="1" opacity="1" d="M 504 201 L 504.5 201 L 603.5 201 L 604 201 L 604 201.5 L 604 250.5 L 604 251 L 604.5 251 L 653.5 251 L 654 251 L 654 251.5 L 654 350.5 L 654 351 L 653.5 351 L 604.5 351 L 604 351 L 604 351.5 L 604 400.5 L 604 401 L 603.5 401 L 554.5 401 L 554 401 L 554 401.5 L 554 450.5 L 554 451 L 553.5 451 L 504.5 451 L 504 451 L 504 451.5 L 504 500.5 L 504 501 L 503.5 501 L 454.5 501 L 454 501 L 454 501.5 L 454 550.5 L 454 551 L 453.5 551 L 354.5 551 Q 353.8 550.8 354 551.5 L 354 600.5 L 354 601 L 353.5 601 L 254.5 601 L 254 601 L 254 600.5 L 254 551.5 L 254 551 L 253.5 551 L 204.5 551 L 204 551 L 204 550.5 L 204 501.5 L 204 501 L 203.5 501 L 154.5 501 L 154 501 L 154 500.5 L 154 451.5 L 154 451 L 154.5 451 L 253.5 451 L 254 451 L 254 451.5 L 254 500.5 L 254 501 L 254.5 501 L 303.5 501 L 304 501 L 304 501.5 L 304 550.5 L 304 551 L 304.5 551 L 353.5 551 L 354 551 L 354 550.5 L 354 501.5 L 354 501 L 354.5 501 L 403.5 501 L 404 501 L 404 500.5 L 404 451.5 L 404 451 L 404.5 451 L 503.5 451 L 504 451 L 504 450.5 L 504 401.5 L 504 401 L 504.5 401 L 553.5 401 L 554 401 L 554 400.5 L 554 301.5 L 554 301 L 554.5 301 L 603.5 301 L 604 301 L 604 300.5 L 604 251.5 L 604 251 L 603.5 251 L 504.5 251 L 504 251 L 504 251.5 L 504 300.5 L 504 301 L 503.5 301 L 454.5 301 L 454 301 L 454 300.5 L 454 251.5 L 454 251 L 454.5 251 L 503.5 251 L 504 251 L 504 250.5 L 504 201.5 L 504 201 Z " /><path fill="rgb(188,139,56)" stroke="rgb(188,139,56)" stroke-width="1" opacity="1" d="M 304 251 L 304.5 251 L 353.5 251 L 354 251 L 354 251.5 L 354 300.5 L 354 301 L 353.5 301 L 304.5 301 L 304 301 L 304 300.5 L 304 251.5 L 304 251 Z " /><path fill="rgb(188,139,56)" stroke="rgb(188,139,56)" stroke-width="1" opacity="1" d="M 154 351 L 154.5 351 L 203.5 351 L 204 351 L 204 351.5 L 204 400.5 L 204 401 L 203.5 401 L 154.5 401 L 154 401 L 154 400.5 L 154 351.5 L 154 351 Z " /><path fill="rgb(103,50,4)" stroke="rgb(103,50,4)" stroke-width="1" opacity="1" d="M 654 301 L 654.5 301 L 703.5 301 L 704 301 L 704 301.5 L 704 450.5 L 704 451 L 703.5 451 L 654.5 451 L 654 451 L 654 451.5 L 654 500.5 L 654 501 L 653.5 501 L 604.5 501 L 604 501 L 604 501.5 L 604 550.5 L 604 551 L 603.5 551 L 504.5 551 Q 503.8 550.8 504 551.5 L 504 600.5 L 504 601 L 503.5 601 L 404.5 601 L 404 601 L 404 601.5 L 404 650.5 L 404 651 L 403.5 651 L 204.5 651 L 204 651 L 204 650.5 L 204 601.5 L 204 601 L 203.5 601 L 154.5 601 L 154 601 L 154 600.5 L 154 551.5 L 154 551 L 153.5 551 L 104.5 551 L 104 551 L 104 550.5 L 104 451.5 L 104 451 L 104.5 451 L 153.5 451 L 154 451 L 154 451.5 L 154 550.5 L 154 551 L 154.5 551 L 203.5 551 L 204 551 L 204 551.5 L 204 600.5 L 204 601 L 204.5 601 L 403.5 601 L 404 601 L 404 600.5 L 404 551.5 L 404 551 L 404.5 551 L 503.5 551 L 504 551 L 504 550.5 L 504 501.5 L 504 501 L 504.5 501 L 603.5 501 L 604 501 L 604 500.5 L 604 451.5 L 604 451 L 604.5 451 L 653.5 451 L 654 451 L 654 450.5 L 654 301.5 L 654 301 Z " /></svg>